<svg width="27" height="25" viewBox="0 0 27 25" fill="none" xmlns="http://www.w3.org/2000/svg">
<path d="M11.3042 6.94583C10.8005 7.44958 10.8005 8.25042 11.3042 8.75417L13.7584 11.2083H1.87504C1.16462 11.2083 0.583374 11.7896 0.583374 12.5C0.583374 13.2104 1.16462 13.7917 1.87504 13.7917H13.7584L11.3042 16.2458C10.8005 16.7496 10.8005 17.5504 11.3042 18.0542C11.808 18.5579 12.6088 18.5579 13.1125 18.0542L17.7496 13.4171C18.2534 12.9133 18.2534 12.0996 17.7496 11.5958L13.1125 6.94583C12.6088 6.44208 11.808 6.44208 11.3042 6.94583ZM23.8334 21.5417H14.7917C14.0813 21.5417 13.5 22.1229 13.5 22.8333C13.5 23.5437 14.0813 24.125 14.7917 24.125H23.8334C25.2542 24.125 26.4167 22.9625 26.4167 21.5417V3.45833C26.4167 2.0375 25.2542 0.875 23.8334 0.875H14.7917C14.0813 0.875 13.5 1.45625 13.5 2.16667C13.5 2.87708 14.0813 3.45833 14.7917 3.45833H23.8334V21.5417Z" fill="#3A85F4"/>
</svg>
