<svg width="13" height="13" viewBox="0 0 13 13" fill="none" xmlns="http://www.w3.org/2000/svg">
<path fill-rule="evenodd" clip-rule="evenodd" d="M1.31657 7.06512L1.63244 6.76218L5.46393 2.9277L7.04121 1.34924C7.28912 1.1011 7.63174 0.975204 7.9812 1.00406L10.8186 1.23763C11.299 1.27715 11.6804 1.65451 11.7253 2.13488L11.7768 2.68623L11.9948 5.01777C12.0279 5.37232 11.9026 5.72009 11.651 5.97185L7.74048 9.88547L5.931 11.6832C5.72685 11.8875 5.45541 12 5.16668 12C4.87795 12 4.60651 11.8875 4.40237 11.6832L1.31657 8.59495C1.11243 8.39065 1 8.11899 1 7.83004C1 7.54108 1.11243 7.26943 1.31657 7.06512ZM7.39378 1.7021L5.82321 3.27384L1.66918 7.41797C1.54308 7.54417 1.48196 7.71799 1.50256 7.89891C1.51779 8.03245 1.58264 8.15546 1.67761 8.2505L4.75497 11.3303C4.98238 11.5578 5.35105 11.5578 5.57842 11.3303L11.2984 5.61893C11.4447 5.47255 11.5176 5.27037 11.4983 5.0642L11.276 2.68623L11.2288 2.18138C11.2064 1.9424 11.0168 1.75467 10.7777 1.73497L7.94032 1.50141C7.7372 1.48477 7.5379 1.5578 7.39378 1.7021Z" stroke="#BFD1E0" stroke-width="0.8"/>
</svg>
